Coordinates
version=1
nRows=17
nColumns=40
inDegrees=yes

Units are S.I. units (second, meters, Newtons, ...)
Angles are in degrees.

endheader
time	pelvis_tilt	pelvis_list	pelvis_rotation	pelvis_tx	pelvis_ty	pelvis_tz	hip_flexion_r	hip_adduction_r	hip_rotation_r	knee_angle_r	knee_angle_r_beta	ankle_angle_r	subtalar_angle_r	mtp_angle_r	hip_flexion_l	hip_adduction_l	hip_rotation_l	knee_angle_l	knee_angle_l_beta	ankle_angle_l	subtalar_angle_l	mtp_angle_l	lumbar_extension	lumbar_bending	lumbar_rotation	arm_flex_r	arm_add_r	arm_rot_r	elbow_flex_r	pro_sup_r	wrist_flex_r	wrist_dev_r	arm_flex_l	arm_add_l	arm_rot_l	elbow_flex_l	pro_sup_l	wrist_flex_l	wrist_dev_l
     55.56750000	     -2.56897165	     -7.13916194	     -2.91671811	      1.14004165	      0.92218197	      0.51014366	     20.19916079	      4.59508246	    -13.59670466	     18.53002247	     18.53002247	      2.60577647	      0.07979685	     -4.49089058	      3.23295769	    -15.55158025	     -9.19668345	     46.51959589	     46.51959589	      3.84469835	    -17.47597522	    -14.68148293	     -8.70951036	      8.73381391	      3.18404827	    -12.71879264	     -9.69003310	    -13.66308650	     19.46731843	     47.34154189	      0.00000000	      0.00000000	     13.75940663	    -13.91251030	    -14.23617867	     96.51137599	     48.34798885	      0.00000000	      0.00000000
     55.57885714	     -2.63418792	     -7.07742827	     -2.66934295	      1.14010717	      0.92369284	      0.51266593	     19.41393319	      4.55147578	    -14.31858692	     18.23970789	     18.23970789	      3.51317346	      1.38568637	     -3.88882027	      5.78788203	    -15.80240715	     -7.58056153	     50.92073006	     50.92073006	      3.84701391	    -17.45218550	     -7.44361856	     -8.52753075	      8.57464862	      3.14575468	    -11.47090879	     -9.74111905	    -13.22746932	     20.55316245	     47.25651400	      0.00000000	      0.00000000	     12.93741868	    -13.13642218	    -14.42571981	     94.03161009	     48.34373287	      0.00000000	      0.00000000
     55.59021429	     -2.56560604	     -7.21008250	     -2.40792146	      1.14009860	      0.92510635	      0.51524328	     18.41625715	      4.83022074	    -14.70786578	     17.74621940	     17.74621940	      3.98868131	      1.87132837	     -3.98554984	      7.92850359	    -16.41620115	     -6.45492484	     54.45615963	     54.45615963	      1.82079514	    -18.07822871	     -6.41670545	     -8.60133244	      8.57015488	      3.14637652	     -9.92037680	     -9.79344111	    -13.17888480	     21.32875001	     47.23129654	      0.00000000	      0.00000000	     11.84458663	    -12.49832625	    -14.05166330	     92.75234784	     48.29156910	      0.00000000	      0.00000000
     55.60157143	     -2.54468780	     -7.04920453	     -2.09388277	      1.13990381	      0.92645358	      0.51714592	     17.50234669	      4.63538434	    -15.60661652	     17.33341964	     17.33341964	      4.51073536	      3.36966589	     -4.31388277	     10.39074294	    -16.33853031	     -4.95872391	     58.13358842	     58.13358842	      2.37593546	    -18.04329987	      0.61850459	     -8.50528605	      8.37460346	      3.19355996	     -8.73581401	     -9.90556528	    -13.00670760	     22.94624562	     47.13917473	      0.00000000	      0.00000000	     11.47466642	    -11.81421612	    -13.99314937	     88.85127580	     48.22686543	      0.00000000	      0.00000000
     55.61292857	     -2.52467749	     -7.03730662	     -1.79426339	      1.13952823	      0.92764491	      0.51911200	     16.56355670	      4.72773830	    -16.03816094	     16.79439232	     16.79439232	      4.90679650	      4.03263150	     -4.44037063	     12.70594685	    -16.50627975	     -3.77412011	     61.20611287	     61.20611287	      2.34458685	    -18.14455312	      4.66443985	     -8.51952707	      8.28386067	      3.36676995	     -7.44389414	    -10.04398239	    -12.88745300	     24.55499244	     47.05133705	      0.00000000	      0.00000000	     10.82551290	    -11.32462888	    -13.20312249	     86.09976902	     48.13448975	      0.00000000	      0.00000000
     55.62428571	     -2.51622780	     -7.00044520	     -1.48759704	      1.13891217	      0.92872536	      0.52085199	     15.67804719	      4.77539080	    -16.53508029	     16.29550602	     16.29550602	      5.21905117	      4.72331253	     -4.64158258	     14.98826039	    -16.63708253	     -2.78213430	     63.84792865	     63.84792865	      2.43329765	    -18.22870284	      7.76743473	     -8.57016052	      8.18043868	      3.86112493	     -6.24132492	    -10.22529708	    -12.77177674	     26.11862077	     46.95921028	      0.00000000	      0.00000000	     10.50294630	    -10.52795391	    -12.41157586	     82.93977817	     48.03559367	      0.00000000	      0.00000000
     55.63564286	     -2.46923551	     -7.04187207	     -1.14019589	      1.13821597	      0.92968157	      0.52252305	     14.73127447	      4.96374057	    -16.79682617	     15.73309534	     15.73309534	      5.60213286	      5.04161725	     -4.69121175	     17.08921519	    -16.85448534	     -1.92346033	     65.91258773	     65.91258773	      2.06540968	    -18.51988118	      8.06011366	     -8.65301174	      8.12279591	      3.68062519	     -4.33120205	    -10.42276396	    -12.77954946	     27.15817463	     46.92752770	      0.00000000	      0.00000000	      9.41508180	    -10.19257844	    -11.91841544	     81.02866109	     47.96066263	      0.00000000	      0.00000000
     55.64700000	     -2.37680466	     -6.93779839	     -0.79668849	      1.13733038	      0.93080001	      0.52392407	     13.72937162	      4.95165192	    -17.25152125	     15.14174356	     15.14174356	      5.86361739	      5.76138255	     -4.97150026	     19.14226008	    -16.80587743	     -1.16074367	     67.65087777	     67.65087777	      2.69889851	    -18.58869691	     10.37559563	     -8.73979483	      7.98101085	      4.21738897	     -2.88999908	    -10.70127960	    -12.69230852	     28.55813003	     46.84930760	      0.00000000	      0.00000000	      9.79353196	     -9.51570122	    -10.98422855	     75.82742541	     47.81144034	      0.00000000	      0.00000000
     55.65835714	     -2.29126250	     -6.90665888	     -0.42000421	      1.13620725	      0.93178509	      0.52522392	     12.75636998	      5.06695971	    -17.48931564	     14.53227724	     14.53227724	      6.13001133	      6.04017839	     -5.11011253	     21.15265775	    -16.82857844	     -0.49646413	     68.93896862	     68.93896862	      3.23405545	    -18.65885349	     11.48392977	     -8.87824600	      7.90065390	      4.54099224	     -1.22893473	    -10.98707415	    -12.76287830	     30.03065734	     46.77896930	      0.00000000	      0.00000000	      9.64156504	     -9.11386861	     -9.79832818	     71.86228794	     47.66325682	      0.00000000	      0.00000000
     55.66971429	     -2.22094435	     -6.88345060	     -0.01504610	      1.13489855	      0.93267315	      0.52643103	     11.80604238	      5.20463845	    -17.69699636	     13.90255802	     13.90255802	      6.38419082	      6.21659416	     -5.20746446	     23.10963544	    -16.80561403	      0.11087631	     69.76913033	     69.76913033	      3.76122361	    -18.71964903	     12.01804658	     -9.01878987	      7.82565088	      4.77250908	      0.62731438	    -11.29811241	    -12.85211307	     31.33861614	     46.71524041	      0.00000000	      0.00000000	      9.47992427	     -8.74467879	     -8.67621953	     67.82513907	     47.51662069	      0.00000000	      0.00000000
     55.68107143	     -2.16135985	     -6.89101332	      0.42879109	      1.13341119	      0.93342329	      0.52751535	     10.87482154	      5.38808312	    -17.89043799	     13.24984406	     13.24984406	      6.65373654	      6.30281194	     -5.17822584	     25.00888232	    -16.76353803	      0.66929444	     70.14500256	     70.14500256	      4.18605597	    -18.75150903	     11.95375459	     -9.18101628	      7.76646619	      4.37239293	      3.02223013	    -11.47684276	    -12.87241917	     32.51183331	     46.67892207	      0.00000000	      0.00000000	      8.53088181	     -8.64338491	     -8.04798948	     65.10769459	     47.42006092	      0.00000000	      0.00000000
     55.69242857	     -2.08755270	     -6.87823426	      0.85132906	      1.13173536	      0.93413510	      0.52849314	      9.95352637	      5.55611340	    -18.00677014	     12.61537035	     12.61537035	      6.88874010	      6.31101067	     -5.27153152	     26.79161416	    -16.62356618	      1.15328071	     70.09724421	     70.09724421	      4.75819151	    -18.74777623	     12.26133727	     -9.30715366	      7.71602374	      4.94389785	      4.95563616	    -11.97091857	    -12.65786531	     33.33497776	     46.62187830	      0.00000000	      0.00000000	      9.10030186	     -8.05415603	     -6.78203885	     59.56090093	     47.23897234	      0.00000000	      0.00000000
     55.70378571	     -2.08166920	     -6.89566186	      1.31836855	      1.12992341	      0.93457026	      0.52933703	      9.13718659	      5.75074541	    -18.16644077	     12.01861340	     12.01861340	      7.15303089	      6.26401632	     -5.24305867	     28.56472518	    -16.44615709	      1.62459354	     69.63115743	     69.63115743	      5.17355713	    -18.72354336	     12.18575968	     -9.43131189	      7.67146727	      4.53224445	      7.40391481	    -12.15131166	    -12.66211010	     34.68870628	     46.57634325	      0.00000000	      0.00000000	      8.15468506	     -7.99695417	     -6.07364757	     56.82832703	     47.13250795	      0.00000000	      0.00000000
     55.71514286	     -2.08739933	     -6.93893845	      1.76554939	      1.12797351	      0.93488287	      0.53009915	      8.34820673	      5.97859460	    -18.27832871	     11.41814798	     11.41814798	      7.42627406	      6.19106491	     -5.23322257	     30.21278952	    -16.22720998	      2.06147512	     68.72844701	     68.72844701	      5.50174487	    -18.65359267	     12.16595012	     -9.54414575	      7.68719284	      4.16551488	      9.89276126	    -12.34383404	    -12.55473273	     35.97135115	     46.52805026	      0.00000000	      0.00000000	      7.42065890	     -7.88744385	     -5.31279663	     53.51835776	     47.01539710	      0.00000000	      0.00000000
     55.72650000	     -2.10714115	     -6.91217144	      2.16193253	      1.12597175	      0.93508337	      0.53068749	      7.63381591	      6.11612686	    -18.29126883	     10.93046646	     10.93046646	      7.66202839	      5.99317293	     -5.38199669	     31.68121583	    -15.91213917	      2.32806195	     67.39427410	     67.39427410	      5.75558194	    -18.58564106	     12.21069045	     -9.57948483	      7.65187529	      5.11358318	     11.51083688	    -13.20431781	    -12.01038655	     37.34421337	     46.42090296	      0.00000000	      0.00000000	      8.46543098	     -7.21511619	     -3.59501873	     47.10789038	     46.77809321	      0.00000000	      0.00000000
     55.73785714	     -2.14976593	     -6.92484801	      2.54944642	      1.12398763	      0.93509957	      0.53118226	      6.93946160	      6.28955072	    -18.34893709	     10.43728005	     10.43728005	      7.93961550	      5.88934221	     -5.45481300	     33.01608615	    -15.59741526	      2.56281918	     65.66875461	     65.66875461	      5.89531184	    -18.50360720	     12.18519988	     -9.65982966	      7.64996353	      5.16832590	     13.57208150	    -13.66668832	    -11.72810637	     39.28349466	     46.31469188	      0.00000000	      0.00000000	      8.11967899	     -6.97877775	     -2.45669356	     43.21880467	     46.60468139	      0.00000000	      0.00000000
     55.74921429	     -2.19889799	     -6.90305514	      2.90777136	      1.12201002	      0.93498655	      0.53157348	      6.30311134	      6.40208429	    -18.39978425	     10.05565465	     10.05565465	      8.28426152	      5.80851044	     -5.49801880	     34.16388034	    -15.21622075	      2.71987171	     63.55382536	     63.55382536	      5.95731585	    -18.42439189	     12.34286746	     -9.76234031	      7.59227097	      4.71225375	     16.10413679	    -13.75475868	    -11.71518720	     40.92991944	     46.26049679	      0.00000000	      0.00000000	      6.84762414	     -6.94990518	     -2.01332726	     41.22027306	     46.52213479	      0.00000000	      0.00000000
